# xmcd
#
# Track frame offsets: 
#        150
#        18765
#        32952
#        50790
#        70255
#        91380
#        105530
#        122557
#        145305
#        164085
#        183147
#        201627
#        223047
#        241757
#        254262
#        270912
#        293615
#
# Disc length: 4172 seconds
#
# Revision: 4
# Processed by: cddbd v1.5.2PL0 Copyright (c) Steve Scherf et al.
# Submitted via: ExactAudioCopy v1.1
#
DISCID=f9104a11
DTITLE=BARBEE BOYS - ? -BARBEE BOYS Complete Single Collection- [Disc.
DTITLE=1]
DYEAR=2009
DGENRE=J-Pop
TTITLE0=????????
TTITLE1=???DANCE
TTITLE2=????!
TTITLE3=??!? ??????
TTITLE4=??????
TTITLE5=??????
TTITLE6=?????????DAYS
TTITLE7=???? on the Run
TTITLE8=?????? listen to me
TTITLE9=??????
TTITLE10=???? tenderness
TTITLE11=目を閉じておいでよ
TTITLE12=chibi
TTITLE13=??????
TTITLE14=??????
TTITLE15=?????? ?norma jean [replise]
TTITLE16=???? tension
EXTD=YEAR: 2009
EXTT0=
EXTT1=
EXTT2=
EXTT3=
EXTT4=
EXTT5=
EXTT6=
EXTT7=
EXTT8=
EXTT9=
EXTT10=
EXTT11=
EXTT12=
EXTT13=
EXTT14=
EXTT15=
EXTT16=
PLAYORDER=
